<?xml version="1.0" standalone="no"?>
<!DOCTYPE svg PUBLIC "-//W3C//DTD SVG 20010904//EN"
 "http://www.w3.org/TR/2001/REC-SVG-20010904/DTD/svg10.dtd">
<svg version="1.0" xmlns="http://www.w3.org/2000/svg"
 width="1175.000000pt" height="212.000000pt" viewBox="0 0 1175.000000 212.000000"
 preserveAspectRatio="xMidYMid meet">

<g transform="translate(0.000000,212.000000) scale(0.100000,-0.100000)"
fill="#000000" stroke="none">
<path d="M2390 1060 l0 -980 885 0 885 0 0 980 0 980 -885 0 -885 0 0 -980z
m1364 714 c18 -17 21 -70 7 -106 -5 -13 -89 -117 -185 -231 -97 -114 -174
-212 -171 -217 4 -6 18 -10 33 -10 44 0 126 -26 182 -56 103 -56 170 -160 191
-295 22 -137 -22 -263 -127 -365 -59 -57 -109 -86 -209 -120 -75 -26 -91 -28
-235 -28 -139 1 -164 4 -245 28 -183 55 -269 142 -269 271 -1 101 51 164 142
173 88 8 148 -38 208 -159 64 -128 108 -169 181 -169 61 0 100 31 136 108 28
60 32 77 32 157 0 80 -3 97 -30 150 -39 78 -75 102 -167 111 -79 8 -108 27
-108 70 0 35 3 40 139 220 l120 159 -286 3 c-358 3 -333 -9 -333 164 0 105 2
120 20 138 19 19 33 20 489 20 414 0 471 -2 485 -16z"/>
<path d="M5248 1349 c-26 -4 -70 -20 -99 -35 -210 -115 -202 -426 13 -533 81
-41 185 -44 264 -7 62 29 71 41 49 66 -16 18 -18 18 -68 -6 -120 -55 -257 -8
-320 111 -29 55 -29 155 0 211 28 52 90 108 138 124 50 17 142 9 191 -17 l39
-20 18 23 c18 23 17 24 -15 44 -62 37 -134 51 -210 39z"/>
<path d="M4534 1335 c-16 -40 0 -45 131 -45 69 0 125 -2 125 -5 0 -2 -29 -50
-65 -105 -36 -55 -65 -103 -65 -105 0 -3 18 -5 40 -5 118 0 187 -105 130 -197
-53 -88 -170 -94 -243 -13 -36 38 -36 39 -58 21 l-22 -18 22 -31 c38 -54 98
-82 175 -82 105 0 181 51 206 138 14 51 12 71 -9 117 -23 51 -71 92 -116 101
-19 3 -35 10 -35 15 0 4 28 52 63 106 35 54 67 104 71 111 6 9 -31 12 -169 12
-147 0 -177 -2 -181 -15z"/>
<path d="M5700 1179 c-67 -30 -108 -75 -126 -137 -44 -150 57 -292 209 -292
96 0 167 42 209 124 31 61 23 170 -17 228 -60 87 -180 120 -275 77z m171 -62
c79 -53 103 -147 57 -229 -60 -106 -207 -111 -275 -8 -31 45 -32 138 -2 187
43 70 153 95 220 50z"/>
<path d="M6242 1183 c-18 -8 -40 -28 -49 -44 -21 -35 -33 -29 -33 17 0 31 -2
34 -30 34 l-30 0 0 -220 0 -220 30 0 30 0 0 128 c0 152 9 190 56 231 48 43
110 44 156 2 l33 -29 5 -164 5 -163 33 -3 32 -3 0 141 c0 160 11 199 64 231
38 23 104 25 134 3 45 -31 52 -63 52 -224 l0 -150 30 0 30 0 0 160 c0 178 -7
209 -59 252 -65 56 -186 42 -233 -25 -12 -18 -23 -34 -24 -36 -2 -2 -18 14
-36 34 -55 63 -129 81 -196 48z"/>
<path d="M7034 1186 c-17 -8 -43 -29 -57 -47 l-27 -34 0 43 c0 40 -1 42 -30
42 l-30 0 0 -220 0 -220 30 0 30 0 0 140 c0 159 14 206 70 235 38 19 99 19
128 -1 45 -31 52 -63 52 -224 l0 -150 30 0 30 0 0 133 c1 187 30 245 128 255
105 10 131 -39 132 -245 l0 -143 30 0 30 0 0 148 c0 169 -9 213 -54 258 -63
63 -183 53 -244 -22 l-28 -34 -22 30 c-45 60 -131 85 -198 56z"/>
<path d="M7790 1179 c-90 -41 -133 -107 -133 -204 0 -139 90 -224 236 -225 67
0 111 14 150 48 15 14 16 17 2 32 -14 16 -19 15 -63 -7 -89 -46 -205 -15 -247
67 -31 61 -34 60 176 60 l192 0 -7 53 c-20 151 -170 238 -306 176z m165 -55
c30 -14 85 -86 85 -111 0 -10 -35 -13 -160 -13 -110 0 -160 3 -160 11 0 25 35
81 62 101 54 38 107 42 173 12z"/>
<path d="M8356 1190 c-34 -11 -63 -35 -87 -75 l-19 -30 0 53 0 52 -35 0 -35 0
0 -221 0 -220 33 3 32 3 5 135 c4 104 9 143 23 168 21 39 68 70 120 78 33 6
37 10 37 35 0 32 -17 36 -74 19z"/>
<path d="M8625 1176 c-64 -29 -100 -72 -120 -141 -33 -111 21 -225 127 -269
49 -21 140 -20 181 0 39 20 87 64 87 80 0 25 -44 24 -71 -2 -71 -68 -203 -44
-249 47 -59 115 18 249 142 249 52 0 79 -10 115 -42 14 -13 28 -18 42 -13 31
9 26 30 -15 63 -68 56 -157 67 -239 28z"/>
<path d="M9079 1173 c-76 -39 -112 -93 -117 -177 -5 -77 9 -126 51 -173 45
-51 98 -73 180 -73 67 0 107 12 151 45 19 14 19 15 1 35 -18 19 -18 19 -47 -1
-46 -33 -132 -36 -188 -7 -42 22 -89 82 -90 116 0 9 45 12 190 12 l190 0 0 28
c0 87 -48 162 -124 198 -69 32 -128 31 -197 -3z m183 -49 c31 -16 64 -59 73
-97 l7 -27 -161 0 c-89 0 -161 2 -161 5 0 18 31 74 53 93 52 48 124 58 189 26z"/>
</g>
</svg>
